<svg width="24" height="24" viewBox="0 0 24 24" fill="none" xmlns="http://www.w3.org/2000/svg">
<mask id="mask0_2_8" style="mask-type:luminance" maskUnits="userSpaceOnUse" x="0" y="0" width="24" height="24">
<path d="M0 0H24V24H0V0Z" fill="white"/>
</mask>
<g mask="url(#mask0_2_8)">
<path d="M12 0C12.2156 0 12.4313 0.0468801 12.6281 0.13594L21.4547 3.88125C22.4859 4.31719 23.2547 5.33438 23.25 6.5625C23.2266 11.2125 21.3141 19.7203 13.2375 23.5875C12.4547 23.9625 11.5453 23.9625 10.7625 23.5875C2.68592 19.7203 0.773429 11.2125 0.749991 6.5625C0.745304 5.33438 1.51405 4.31719 2.5453 3.88125L11.3766 0.13594C11.5688 0.0468801 11.7844 0 12 0ZM12 3.13125V20.85C18.4688 17.7188 20.2078 10.7859 20.25 6.62813L12 3.13125Z" fill="#7DB3C9"/>
</g>
</svg>
