<svg width="17" height="17" viewBox="0 0 17 17" fill="none" xmlns="http://www.w3.org/2000/svg">
<path d="M7.00604 0.243698C6.80685 0.0345539 6.50808 -0.0451202 6.22922 0.0279144C5.95036 0.100949 5.73457 0.323373 5.66154 0.602232L5.13702 2.67708L3.07877 2.09612C2.79991 2.01645 2.50113 2.09612 2.29863 2.29863C2.09612 2.50113 2.01645 2.79991 2.09612 3.07877L2.67708 5.13702L0.602232 5.66486C0.323373 5.73457 0.104269 5.95368 0.0279144 6.23254C-0.04844 6.5114 0.0345539 6.80685 0.243698 7.00604L1.77743 8.49993L0.243698 9.99382C0.0345539 10.193 -0.0451202 10.4918 0.0279144 10.7706C0.100949 11.0495 0.323373 11.2653 0.602232 11.3383L2.67708 11.8628L2.09612 13.9211C2.01645 14.1999 2.09612 14.4987 2.29863 14.7012C2.50113 14.9037 2.79991 14.9834 3.07877 14.9037L5.13702 14.3228L5.66154 16.3976C5.73125 16.6765 5.95036 16.8956 6.22922 16.9719C6.50808 17.0483 6.80353 16.9653 7.00604 16.7595L8.49993 15.2258L9.99382 16.7595C10.1963 16.9653 10.4918 17.0483 10.7706 16.9719C11.0495 16.8956 11.2653 16.6765 11.3383 16.3976L11.8628 14.3228L13.9211 14.9037C14.1999 14.9834 14.4987 14.9037 14.7012 14.7012C14.9037 14.4987 14.9834 14.1999 14.9037 13.9211L14.3228 11.8628L16.3976 11.3383C16.6765 11.2686 16.8956 11.0495 16.9719 10.7706C17.0483 10.4918 16.9653 10.1963 16.7595 9.99382L15.2258 8.49993L16.7595 7.00604C16.9653 6.80353 17.0483 6.50808 16.9719 6.22922C16.8956 5.95036 16.6765 5.73457 16.3976 5.66154L14.3228 5.13702L14.9037 3.07877C14.9834 2.79991 14.9037 2.50113 14.7012 2.29863C14.4987 2.09612 14.1999 2.01645 13.9211 2.09612L11.8628 2.67708L11.335 0.602232C11.2653 0.323373 11.0462 0.104269 10.7673 0.0279144C10.4885 -0.04844 10.193 0.0345539 9.99382 0.243698L8.49993 1.77743L7.00604 0.243698Z" fill="#7DB3C9"/>
</svg>
