<svg width="920" height="1024" viewBox="0 0 920 1024" fill="none" xmlns="http://www.w3.org/2000/svg">
<path d="M507 323C536.7 323 566.4 323 597 323C597.066 352.071 597.122 381.141 597.153 410.212C597.157 413.655 597.161 417.097 597.165 420.54C597.166 421.226 597.166 421.911 597.167 422.617C597.18 433.67 597.204 444.724 597.231 455.777C597.26 467.144 597.276 478.511 597.282 489.878C597.286 496.252 597.295 502.625 597.317 508.999C597.338 515.015 597.344 521.03 597.339 527.046C597.34 529.238 597.346 531.431 597.358 533.623C597.446 551.135 596.461 568.747 591.375 585.625C590.998 586.903 590.998 586.903 590.613 588.207C580.945 619.4 559.874 644.807 531.062 660.133C517.374 667.103 502.65 671.201 487.562 673.875C486.573 674.055 486.573 674.055 485.563 674.24C478.58 675.342 472.3 675 465 675C465 648.93 465 622.86 465 596C470.28 594.35 475.56 592.7 481 591C488.191 586.524 493.632 582.258 498 575C498.45 574.263 498.9 573.525 499.363 572.766C507.007 558.967 506.445 543.764 506.432 528.481C506.441 526.233 506.452 523.984 506.463 521.736C506.491 515.671 506.5 509.606 506.506 503.541C506.516 497.188 506.542 490.835 506.566 484.482C506.605 473.832 506.633 463.182 506.654 452.532C506.675 441.569 506.702 430.606 506.738 419.643C506.74 418.966 506.742 418.288 506.744 417.59C506.755 414.192 506.766 410.793 506.778 407.395C506.871 379.263 506.94 351.132 507 323Z" fill="#7FB7CC"/>
<path d="M323 323C352.7 323 382.4 323 413 323C413.02 329.783 413.04 336.567 413.06 343.556C413.125 365.291 413.199 387.026 413.28 408.76C413.293 412.14 413.305 415.519 413.317 418.898C413.32 419.571 413.322 420.244 413.325 420.937C413.364 431.812 413.397 442.687 413.427 453.562C413.459 464.731 413.497 475.9 413.543 487.069C413.568 493.339 413.59 499.608 413.603 505.877C413.616 511.783 413.638 517.69 413.667 523.596C413.676 525.758 413.682 527.92 413.684 530.083C413.706 549.813 414.425 568.284 429.102 583.125C437.261 590.752 443.886 592.969 455 596C455 622.07 455 648.14 455 675C439.772 675 439.772 675 432.812 673.812C432.012 673.679 431.212 673.545 430.387 673.407C411.015 669.996 392.048 663.642 376 652C375.459 651.61 374.918 651.219 374.361 650.817C345.096 629.464 329.878 598.267 324 563C323.113 556.7 322.858 550.504 322.88 544.148C322.879 543.197 322.878 542.246 322.877 541.266C322.875 538.102 322.881 534.938 322.886 531.773C322.887 529.496 322.887 527.219 322.886 524.942C322.886 518.775 322.892 512.608 322.899 506.442C322.905 499.992 322.905 493.541 322.907 487.091C322.909 476.27 322.916 465.449 322.925 454.627C322.934 443.485 322.941 432.342 322.945 421.199C322.945 420.512 322.946 419.824 322.946 419.116C322.947 415.666 322.948 412.216 322.95 408.766C322.96 380.177 322.978 351.589 323 323Z" fill="#7EB6CC"/>
<path d="M637 99C638.55 99.6937 638.55 99.6937 640.131 100.401C664.11 111.232 686.666 124.609 708 140C708.702 140.505 709.403 141.01 710.126 141.53C728.439 154.79 745.121 169.934 761.092 185.907C762.692 187.505 764.3 189.094 765.908 190.684C772.392 197.133 778.313 203.826 784 211C784.863 212.028 785.732 213.051 786.609 214.066C850.109 288.111 882.37 388.785 882.13 485.438C882.125 487.998 882.13 490.558 882.137 493.117C882.143 506.112 881.983 519.133 880 532C879.67 532 879.34 532 879 532C879.004 531.442 879.009 530.885 879.013 530.31C879.754 432.802 864.702 341.176 784.411 223.699C782.443 221.33 780.541 218.91 778.625 216.5C766.179 201.323 752.052 186.614 737 174C736.12 173.23 735.239 172.461 734.332 171.668C720.128 159.315 704.897 148.076 689 138C688.329 137.573 687.657 137.146 686.965 136.706C629.662 100.477 563.837 77.0146 496 72C494.842 71.9139 493.685 71.8277 492.492 71.739C482.758 71.0698 473.068 70.7978 463.312 70.8125C462.186 70.8134 462.186 70.8134 461.036 70.8143C363.362 71.0249 267.973 104.124 193 167C192.36 167.536 191.72 168.072 191.06 168.624C182.658 175.666 182.658 175.666 174.75 183.25C173.842 184.157 172.935 185.065 172 186C171.34 186 170.68 186 170 186C169.616 186.875 169.616 186.875 169.225 187.767C167.88 190.218 166.412 191.786 164.402 193.723C163.688 194.42 162.973 195.118 162.237 195.836C161.478 196.571 160.719 197.306 159.938 198.062C153.467 204.433 147.587 210.842 142 218C141.002 219.213 140.001 220.422 138.996 221.629C86.2683 285.139 54.6752 365.209 45.75 446.938C45.6252 448.069 45.6252 448.069 45.4979 449.223C43.3249 469.229 42.8532 489.138 42.9375 509.25C42.9425 511.375 42.9471 513.5 42.9512 515.625C42.962 520.75 42.9792 525.875 43 531C42.67 531 42.34 531 42 531C31.2673 425.799 59.0099 319.273 132.643 216.966C136.013 212.904 139.484 208.936 143 205C143.779 204.122 144.557 203.244 145.359 202.34C147.558 199.88 149.776 197.438 152 195C152.874 194.033 153.748 193.066 154.648 192.07C162.98 182.88 171.548 174.051 181 166C182.005 165.121 183.009 164.24 184.012 163.359C193.026 155.481 202.377 148.12 212 141C212.69 140.489 213.379 139.979 214.09 139.453C225.292 131.218 236.966 123.951 249 117C249.749 116.564 250.497 116.129 251.269 115.68C305.909 84.0277 368.089 66.1908 431 62C431.803 61.9383 432.605 61.8766 433.432 61.813C503.027 56.5434 573.579 70.4475 637 99Z" fill="#1F3459"/>
<path d="M169 704C172.608 707.569 176.12 711.208 179.562 714.938C180.265 715.687 180.265 715.687 180.982 716.451C185.883 721.763 189.589 726.438 190.098 733.824C189.887 738.525 187.853 741.211 184.5 744.312C179.659 747.58 174.915 747.543 169.273 746.492C168.148 746.249 168.148 746.249 167 746C165.956 749.515 164.944 753.037 163.938 756.562C163.643 757.553 163.348 758.544 163.045 759.564C161.45 765.212 160.682 769.267 162 775C162 775.99 162 776.98 162 778C159.004 776.662 156.913 775.226 154.688 772.812C154.155 772.262 153.623 771.712 153.074 771.145C150.187 765.38 154.493 756.487 156.271 750.584C157.51 746.321 158.579 742.48 158 738C156.625 736.121 156.625 736.121 155 735C154.446 735.577 153.891 736.155 153.32 736.75C152.234 737.864 152.234 737.864 151.125 739C150.406 739.743 149.686 740.485 148.945 741.25C147 743 147 743 145 743C145 743.66 145 744.32 145 745C143.708 746.373 142.376 747.71 141 749C141.66 751.31 142.32 753.62 143 756C142.01 756 141.02 756 140 756C137.844 753.699 137.844 753.699 135.5 750.688C132.524 746.831 132.524 746.831 129.219 743.27C128 742 128 742 128 740C129.044 740.245 130.088 740.49 131.164 740.742C134.97 741.349 134.97 741.349 137.773 739.445C139.061 738.297 139.061 738.297 140.375 737.125C141.317 736.295 142.26 735.465 143.23 734.609C146.514 731.515 149.723 728.365 152.871 725.133C154.927 723.073 157.048 721.152 159.25 719.25C159.895 718.689 160.539 718.129 161.203 717.551C162.798 716.175 164.398 714.806 166 713.438C168.482 710.413 168.346 708.81 168 705C168.33 704.67 168.66 704.34 169 704ZM174 716C173.264 716.736 172.528 717.472 171.77 718.23C167.18 722.82 162.59 727.41 158 732C163.124 737.872 163.124 737.872 170 741C174.49 740.92 176.419 740.492 179.875 737.562C182.055 734.934 182.871 733.754 183.438 730.438C182.798 725.411 180.183 721.872 177 718C176.01 717.34 175.02 716.68 174 716Z" fill="#2B446A"/>
<path d="M327 819C329.818 819.923 332.629 820.863 335.438 821.812C336.24 822.074 337.042 822.335 337.869 822.604C338.633 822.865 339.397 823.126 340.184 823.395C340.891 823.63 341.598 823.866 342.326 824.109C344 825 344 825 345 828C343.02 828.33 341.04 828.66 339 829C336.69 835.6 334.38 842.2 332 849C339.59 845.04 347.18 841.08 355 837C355 833.887 354.826 831.892 354 829C354.784 829.268 355.567 829.536 356.375 829.812C360.892 831.292 365.443 832.649 370 834C370 834.99 370 835.98 370 837C369.415 837.184 368.83 837.369 368.227 837.559C360.807 840.065 353.96 843.409 347.02 847.002C346.27 847.388 345.519 847.774 344.746 848.172C344.072 848.523 343.399 848.875 342.705 849.237C341 850 341 850 339 850C340.872 853.989 342.757 857.972 344.652 861.951C345.293 863.301 345.931 864.653 346.566 866.006C351.399 876.305 351.399 876.305 357.947 885.582C359 887 359 887 359 889C352.549 887.647 346.289 885.969 340 884C340 883.01 340 882.02 340 881C341.32 881 342.64 881 344 881C342.397 877.625 340.792 874.25 339.188 870.875C338.736 869.924 338.284 868.972 337.818 867.992C335.589 863.305 333.346 858.63 331 854C329.963 856.557 328.946 859.119 327.938 861.688C327.643 862.409 327.348 863.13 327.045 863.873C325.475 867.919 324.412 870.743 326 875C326.66 875.99 327.32 876.98 328 878C323.735 879.422 320.8 877.654 316.812 876.062C316.063 875.772 315.313 875.481 314.541 875.182C312.691 874.463 310.845 873.732 309 873C309.33 872.01 309.66 871.02 310 870C311.65 870 313.3 870 315 870C318.64 861.631 321.813 853.148 324.705 844.497C325.385 842.471 326.081 840.45 326.777 838.43C327.215 837.131 327.651 835.831 328.086 834.531C328.478 833.372 328.871 832.212 329.275 831.018C329.98 828.085 330.2 826.726 329 824C327.023 822.246 327.023 822.246 325 821C325.66 820.34 326.32 819.68 327 819Z" fill="#29436A"/>
<path d="M548 840C548 840.99 548 841.98 548 843C547.01 843.33 546.02 843.66 545 844C543.844 846.899 543.989 849.277 544.437 852.322C544.557 853.166 544.678 854.011 544.801 854.881C544.938 855.785 545.074 856.689 545.215 857.621C545.349 858.558 545.484 859.495 545.623 860.46C546.054 863.454 546.495 866.446 546.938 869.438C547.375 872.426 547.81 875.415 548.242 878.404C548.51 880.263 548.783 882.122 549.06 883.98C549.647 888.018 550.182 891.906 550 896C546 896 546 896 544.535 894.707C544.049 894.082 543.563 893.457 543.062 892.813C539.756 888.791 536.207 885.146 532.5 881.5C528.409 877.457 524.486 873.368 520.758 868.984C514.591 861.607 514.591 861.607 507 856C508.213 869.418 509.877 882.696 512 896C513.98 896.33 515.96 896.66 518 897C518 897.99 518 898.98 518 900C510.08 900.99 510.08 900.99 502 902C501.505 900.515 501.505 900.515 501 899C501.639 898.773 502.279 898.546 502.938 898.313C505.21 897.181 505.21 897.181 505.673 894.767C506.027 891.77 505.791 889.395 505.293 886.422C505.119 885.351 504.946 884.279 504.767 883.175C504.575 882.045 504.384 880.915 504.188 879.75C503.809 877.414 503.433 875.079 503.059 872.742C502.784 871.027 502.784 871.027 502.503 869.276C501.469 862.542 500.717 855.775 500 849C498.35 849 496.7 849 495 849C495 848.01 495 847.02 495 846C499.577 844.105 504.103 842.728 509 844C514.566 847.692 518.636 853.397 522.85 858.494C526.5 862.748 530.502 866.639 534.5 870.563C535.948 872.001 537.396 873.44 538.844 874.879C539.895 875.92 540.947 876.96 542 878C541.522 874.146 541.042 870.292 540.562 866.438C540.428 865.351 540.293 864.265 540.154 863.146C539.483 857.757 538.794 852.373 538 847C535.69 846.34 533.38 845.68 531 845C531 844.01 531 843.02 531 842C542.522 839.704 542.522 839.704 548 840Z" fill="#2B436A"/>
<path d="M258.961 783.352C265.447 788.595 269.248 794.744 270.246 803.047C270.775 812.088 267.552 819.623 261.75 826.438C255.708 832.709 249.069 836.045 240.313 836.313C232.507 836.209 226.176 832.952 220.504 827.688C215.532 822.109 213.583 815.408 214 808C215.798 798.276 219.425 790.12 227.5 784.152C237.38 777.933 248.736 776.919 258.961 783.352ZM231.563 791.281C225.649 797.787 222.344 805.636 221.867 814.457C222.19 820.026 224.041 824.063 228 828C232.381 830.952 235.766 831.632 241 831C249.332 828.234 254.924 822.499 258.875 814.813C261.914 808.423 263.524 801.713 261.281 794.777C259.294 790.49 257.17 787.424 253 785C244.826 782.642 237.567 785.61 231.563 791.281Z" fill="#2B436A"/>
<path d="M631 812C632.605 814.723 632.605 814.723 634.188 818.062C634.717 819.167 635.247 820.272 635.793 821.41C636.191 822.265 636.59 823.119 637 824C633 824 633 824 630.812 821.937C627.255 819.487 625.559 819.771 621.426 820.437C617.511 821.345 613.767 822.613 610 824C610.758 825.806 610.758 825.806 611.531 827.648C612.188 829.224 612.844 830.799 613.5 832.375C613.834 833.169 614.168 833.963 614.512 834.781C614.828 835.542 615.143 836.302 615.469 837.086C615.909 838.139 615.909 838.139 616.357 839.212C617 841 617 841 617 843C619.159 842.18 621.302 841.318 623.438 840.437C624.632 839.962 625.827 839.486 627.059 838.996C630.386 837.217 630.386 837.217 630.91 833.285C630.94 832.201 630.969 831.117 631 830C631.99 829.67 632.98 829.34 634 829C635.033 831.433 636.051 833.871 637.062 836.312C637.357 837.003 637.652 837.693 637.955 838.404C640.113 843.66 640.113 843.66 639 847C637 847 637 847 634.875 845C634.256 844.34 633.637 843.68 633 843C631.394 843.452 629.79 843.912 628.188 844.375C626.848 844.758 626.848 844.758 625.48 845.148C622.795 845.953 622.795 845.953 620 848C623.96 857.405 623.96 857.405 628 867C638.577 864.548 638.577 864.548 646.375 857.687C647.123 854.473 647.615 851.277 648 848C648.99 848 649.98 848 651 848C651.99 852.95 652.98 857.9 654 863C650.338 864.494 646.676 865.987 643.014 867.48C641.168 868.232 639.322 868.985 637.477 869.738C630.661 872.516 623.839 875.279 617 878C617 876.68 617 875.36 617 874C617.99 873.505 617.99 873.505 619 873C618.444 867.327 616.889 862.7 614.656 857.477C614.163 856.296 614.163 856.296 613.659 855.092C612.967 853.442 612.271 851.793 611.571 850.146C610.496 847.615 609.432 845.08 608.371 842.543C607.696 840.937 607.02 839.332 606.344 837.727C606.024 836.966 605.704 836.206 605.375 835.422C604.088 831.962 604.088 831.962 602 829C599.672 828.632 597.338 828.298 595 828C595 827.01 595 826.02 595 825C595.715 824.718 596.431 824.436 597.168 824.145C600.447 822.851 603.723 821.55 607 820.25C608.688 819.585 608.688 819.585 610.41 818.906C615.258 816.978 620.016 815.062 624.625 812.609C628 811 628 811 631 812Z" fill="#2B436A"/>
<path d="M507 323C536.7 323 566.4 323 597 323C597 394.94 597 466.88 597 541C596.67 541 596.34 541 596 541C596 469.72 596 398.44 596 325C567.29 325 538.58 325 509 325C509.005 331.754 509.01 338.508 509.016 345.467C509.032 367.079 509.043 388.691 509.051 410.302C509.052 413.659 509.054 417.017 509.055 420.374C509.055 421.042 509.055 421.71 509.056 422.399C509.06 433.22 509.068 444.041 509.077 454.861C509.087 465.965 509.092 477.069 509.094 488.172C509.095 494.409 509.098 500.645 509.106 506.882C509.113 512.75 509.115 518.619 509.113 524.487C509.113 526.643 509.115 528.798 509.119 530.953C509.124 533.893 509.123 536.834 509.12 539.775C509.123 540.629 509.126 541.483 509.129 542.363C509.118 546.69 508.866 550.739 508 555C507.67 555 507.34 555 507 555C507 478.44 507 401.88 507 323Z" fill="#68AAC4"/>
<path d="M811 620C815.292 621.646 819.046 623.674 823 626C822.67 626.99 822.34 627.98 822 629C820.206 628.845 820.206 628.845 818.375 628.688C814.758 628.694 813.932 629.044 810.688 631.125C806.533 635.569 804.374 639.894 804 646C804.985 652.02 807.427 656.08 812 660C820.167 664.998 827.435 666.939 837 666C841.494 664.696 844.302 662.77 847.438 659.312C849.65 654.621 850.812 650.064 849.453 644.938C848.321 642.164 847.122 640.122 845 638C845.33 637.34 845.66 636.68 846 636C849.791 637.45 853.387 639.152 857 641C855.656 652.316 852.962 664.212 844 672C837.682 676.478 831.615 677.813 824 677C814.123 674.671 806.733 669.379 801 661C799.142 657.129 798.703 653.969 798.688 649.688C798.671 648.619 798.654 647.55 798.637 646.449C799.411 639.1 802.835 633.181 806.688 627C807.103 626.321 807.519 625.641 807.947 624.941C808.959 623.291 809.978 621.645 811 620Z" fill="#284168"/>
<path d="M116 617C120.005 618.335 121.159 620.873 123.25 624.312C123.626 624.895 124.003 625.477 124.391 626.076C127.064 630.416 127.064 630.416 126.734 633.418C126.492 633.94 126.25 634.462 126 635C124.68 633.68 123.36 632.36 122 631C117.904 632.26 114.316 633.78 110.594 635.898C109.603 636.46 108.611 637.022 107.59 637.602C106.57 638.187 105.551 638.772 104.5 639.375C103.48 639.952 102.461 640.53 101.41 641.125C90.2052 646.778 90.2052 646.778 84 657C84.0952 662.426 85.4531 665.893 89 670C93.3929 672.619 96.596 673.33 101.65 672.595C106.481 671.372 110.795 668.926 115.188 666.625C116.159 666.13 117.13 665.635 118.131 665.125C121.718 663.286 125.261 661.458 128.689 659.333C131 658 131 658 133 658C132.505 654.535 132.505 654.535 132 651C132.99 651 133.98 651 135 651C136.859 653.266 136.859 653.266 138.75 656.25C139.384 657.225 140.018 658.199 140.672 659.203C142 662 142 662 141.703 664.359C141.471 664.901 141.239 665.442 141 666C140.01 665.505 140.01 665.505 139 665C139 664.34 139 663.68 139 663C131.004 663.234 125.105 666.723 118.188 670.5C115.953 671.7 113.717 672.898 111.481 674.094C110.5 674.627 109.519 675.16 108.509 675.709C103.387 678.345 98.6643 678.859 93 678C86.1702 674.935 82.0296 670.436 78.9258 663.652C76.8973 657.841 77.2779 651.969 79.375 646.25C85.4928 637.418 97.4412 632.988 106.707 628.234C111.487 625.84 111.487 625.84 116 623C116.418 619.874 116.418 619.874 116 617Z" fill="#273E65"/>
<path d="M713 759C716.118 760.363 718.047 761.851 720.25 764.438C721.031 765.333 721.031 765.333 721.828 766.246C723 768 723 768 723 771C720.038 770.387 718.619 769.746 716 768C710.402 768.211 707.329 769.727 703 773C706.584 778.674 710.767 783.799 715 789C716.686 791.072 718.371 793.145 720.057 795.217C721.21 796.634 722.364 798.051 723.519 799.466C726.074 802.602 728.613 805.733 731 809C733.31 808.67 735.62 808.34 738 808C736.405 812.465 732.931 814.855 729.375 817.75C728.764 818.257 728.153 818.763 727.523 819.285C726.021 820.53 724.511 821.766 723 823C722.01 822.505 722.01 822.505 721 822C721.309 821.402 721.619 820.804 721.938 820.188C723.102 817.91 723.102 817.91 724 815C722.538 812.794 721.06 810.839 719.375 808.812C718.639 807.903 718.639 807.903 717.888 806.975C716.828 805.667 715.763 804.362 714.694 803.062C712.957 800.947 711.233 798.823 709.512 796.695C707.296 793.958 705.075 791.224 702.848 788.496C700.548 785.678 698.266 782.845 696 780C692.667 781.171 690.136 782.116 688 785C686.269 789.661 687.673 793.394 689 798C687.515 798.495 687.515 798.495 686 799C684.825 797.067 683.661 795.129 682.5 793.188C681.85 792.109 681.201 791.03 680.531 789.918C679 787 679 787 679 784C681.177 782.366 683.317 780.928 685.625 779.5C693.485 774.463 700.747 768.866 708 763C709.666 761.666 711.333 760.333 713 759Z" fill="#2A436A"/>
<path d="M66.9999 333C67.3299 333 67.6599 333 67.9999 333C67.9999 334.65 67.9999 336.3 67.9999 338C68.9899 338 69.9799 338 70.9999 338C69.3235 343.714 67.561 349.396 65.7304 355.062C49.5131 405.404 42.7161 456.439 42.9374 509.25C42.9425 511.375 42.947 513.5 42.9511 515.625C42.962 520.75 42.9791 525.875 42.9999 531C42.6699 531 42.3399 531 41.9999 531C35.104 463.407 44.8188 397.048 66.9999 333Z" fill="#25355A"/>
<path d="M854 335C854.66 335 855.32 335 856 335C872.527 383.862 882.259 433.717 882.13 485.438C882.125 487.998 882.13 490.558 882.137 493.117C882.143 506.112 881.983 519.133 880 532C879.67 532 879.34 532 879 532C879.007 531.164 879.007 531.164 879.013 530.31C879.49 467.561 874.167 408.987 855.068 349.078C854.656 347.753 854.656 347.753 854.234 346.402C853.994 345.643 853.754 344.884 853.507 344.101C852.698 340.746 852.917 338.249 854 335Z" fill="#233257"/>
<path d="M424 844C431.342 844.593 438.674 845.238 446 846C446 846.99 446 847.98 446 849C445.031 849.124 444.061 849.248 443.062 849.375C441.547 849.684 441.547 849.684 440 850C438.366 853.268 438.387 856.918 438.027 860.516C437.94 861.364 437.853 862.213 437.763 863.087C437.578 864.886 437.396 866.685 437.216 868.484C436.94 871.225 436.657 873.966 436.373 876.707C436.195 878.456 436.017 880.204 435.84 881.953C435.755 882.769 435.671 883.585 435.584 884.425C435.166 888.637 434.909 892.76 435 897C436.98 897.99 438.96 898.98 441 900C440.67 900.66 440.34 901.32 440 902C433.4 901.67 426.8 901.34 420 901C419.67 899.68 419.34 898.36 419 897C421.97 896.505 421.97 896.505 425 896C425.577 890.915 426.146 885.828 426.709 880.741C426.901 879.015 427.095 877.289 427.291 875.562C428.796 862.318 428.796 862.318 429 849C426.525 848.01 426.525 848.01 424 847C424 846.01 424 845.02 424 844Z" fill="#284269"/>
<path d="M761 705C761.99 705.33 762.98 705.66 764 706C763.519 707.278 763.519 707.278 763.027 708.582C762.644 711.899 762.644 711.899 764.286 713.63C766.31 715.422 768.401 717.063 770.562 718.688C771.332 719.292 772.102 719.896 772.895 720.519C774.48 721.76 776.072 722.992 777.67 724.215C779.834 725.873 781.976 727.554 784.109 729.25C787.39 731.855 790.686 734.438 794 737C794.745 737.599 795.49 738.199 796.258 738.816C797.938 740.237 797.938 740.237 800.062 739.75C800.702 739.502 801.341 739.255 802 739C802.99 738.67 803.98 738.34 805 738C804.124 742.408 801.688 745.307 798.938 748.75C798.465 749.352 797.993 749.954 797.506 750.574C796.343 752.054 795.172 753.528 794 755C793.01 754.505 793.01 754.505 792 754C792.272 753.109 792.544 752.219 792.824 751.301C793.387 747.88 793.387 747.88 790.895 745.543C789.877 744.766 788.86 743.988 787.812 743.188C786.995 742.55 786.995 742.55 786.16 741.899C784.456 740.578 782.73 739.288 781 738C779.982 737.22 778.963 736.44 777.914 735.637C775.942 734.138 773.957 732.655 771.961 731.188C769.943 729.697 767.949 728.175 765.977 726.625C764.534 725.511 764.534 725.511 763.062 724.375C761.781 723.366 761.781 723.366 760.473 722.336C758.078 720.739 758.078 720.739 755.371 721.289C754.589 721.524 753.806 721.758 753 722C752.01 722 751.02 722 750 722C751.751 718.114 754.183 714.722 756.625 711.25C757.045 710.648 757.465 710.046 757.898 709.426C758.93 707.949 759.965 706.474 761 705Z" fill="#2B436A"/>
<path d="M46 415C51.0847 424.154 46.9674 438.117 45.7845 448.177C43.4046 468.556 42.8516 488.743 42.9375 509.25C42.9426 511.375 42.9471 513.5 42.9512 515.625C42.9621 520.75 42.9792 525.875 43 531C42.67 531 42.34 531 42 531C32.8489 441.302 32.8489 441.302 46 415Z" fill="#3D4865"/>
<path d="M877 437C877.66 437 878.32 437 879 437C885.467 449.935 882.194 474.379 882.187 488.75C882.188 489.583 882.189 490.416 882.19 491.274C882.189 499.95 882.046 508.603 881.551 517.266C881.512 517.944 881.474 518.622 881.434 519.32C881.162 523.593 880.652 527.773 880 532C879.67 532 879.34 532 879 532C879.004 531.442 879.009 530.885 879.013 530.31C879.318 493.817 879.318 493.817 877.437 457.391C876.895 450.591 876.908 443.817 877 437Z" fill="#3B4763"/>
<path d="M172 174C172 176.667 172 179.333 172 182C172.66 182 173.32 182 174 182C174 181.01 174 180.02 174 179C174.99 179 175.98 179 177 179C175.715 181.867 174.429 183.976 172 186C171.34 186 170.68 186 170 186C169.599 186.89 169.599 186.89 169.19 187.798C167.984 190.029 166.764 191.466 164.961 193.234C164.381 193.808 163.801 194.382 163.203 194.973C162.6 195.559 161.997 196.146 161.375 196.75C160.764 197.352 160.153 197.954 159.523 198.574C158.02 200.054 156.511 201.528 155 203C152.969 199.242 152.969 199.242 153.25 197.062C153.621 196.042 153.621 196.042 154 195C154.404 193.822 154.404 193.822 154.816 192.62C156.101 189.776 157.471 188.183 159.695 186.012C160.411 185.306 161.126 184.6 161.863 183.873C162.61 183.152 163.356 182.431 164.125 181.688C165.256 180.577 165.256 180.577 166.41 179.443C168.267 177.622 170.13 175.808 172 174Z" fill="#283F61"/>
<path d="M169 704C172.608 707.569 176.12 711.208 179.562 714.938C180.265 715.687 180.265 715.687 180.982 716.451C189 725.142 189 725.142 189 729C187 729 187 729 185.375 727.5C184.921 727.005 184.468 726.51 184 726C184.206 726.928 184.412 727.856 184.625 728.812C185 732 185 732 183 735C182.925 734.371 182.85 733.742 182.773 733.094C181.733 726.319 179.536 722.106 175 717C173.35 718.32 171.7 719.64 170 721C169.134 720.474 169.134 720.474 168.25 719.938C166.107 718.849 166.107 718.849 164.062 719.125C161.297 720.298 159.265 722.05 157 724C158.909 719.363 162.43 716.692 166.102 713.414C168.471 710.401 168.284 708.737 168 705C168.33 704.67 168.66 704.34 169 704Z" fill="#223B62"/>
<path d="M869 382C870.923 385.377 871.677 388.627 872.438 392.426C872.693 393.699 872.948 394.972 873.211 396.283C873.341 396.947 873.471 397.611 873.605 398.295C873.992 400.269 874.39 402.241 874.789 404.213C879.208 426.495 879.208 426.495 879 437C878.34 437 877.68 437 877 437C877 438.98 877 440.96 877 443C876.67 443 876.34 443 876 443C875.858 441.916 875.858 441.916 875.712 440.811C873.835 426.702 871.85 412.731 868.4 398.906C866.925 392.559 867.144 388.266 869 382Z" fill="#27365A"/>
<path d="M327 857C327.66 857 328.32 857 329 857C328.795 857.641 328.59 858.281 328.379 858.941C326.02 866.34 326.02 866.34 325 874C326.291 876.421 326.291 876.421 328 878C323.735 879.422 320.8 877.654 316.812 876.062C316.063 875.772 315.313 875.481 314.541 875.182C312.691 874.463 310.845 873.732 309 873C309.33 872.01 309.66 871.02 310 870C311.65 870 313.3 870 315 870C316.32 866.7 317.64 863.4 319 860C319.66 860.33 320.32 860.66 321 861C321.66 860.01 322.32 859.02 323 858C323 858.66 323 859.32 323 860C324.32 859.67 325.64 859.34 327 859C327 858.34 327 857.68 327 857Z" fill="#294168"/>
<path d="M184 726C184.99 726.33 185.98 726.66 187 727C187 727.66 187 728.32 187 729C187.99 729.33 188.98 729.66 190 730C189.886 734.656 189.723 738.681 186.75 742.438C182.811 746.108 180.557 746.949 175.188 747.125C173.61 747.063 173.61 747.063 172 747C171.67 746.34 171.34 745.68 171 745C171.743 744.319 171.743 744.319 172.5 743.625C174.226 742.124 174.226 742.124 174 740C174.928 739.588 175.856 739.175 176.812 738.75C179.955 737.025 181.282 736.075 183 733C183.633 730.582 184 728.495 184 726Z" fill="#2B466D"/>
<path d="M811 620C815.292 621.646 819.046 623.674 823 626C822.67 626.99 822.34 627.98 822 629C820.206 628.845 820.206 628.845 818.375 628.688C814.758 628.694 813.932 629.044 810.688 631.125C808.028 633.97 806.662 636.518 805 640C804.01 640.33 803.02 640.66 802 641C801.123 638.576 800.832 637.42 801.804 634.985C802.229 634.294 802.653 633.603 803.09 632.891C803.544 632.137 803.999 631.382 804.467 630.605C805.195 629.44 805.195 629.44 805.938 628.25C806.419 627.457 806.9 626.664 807.396 625.848C808.587 623.891 809.788 621.943 811 620Z" fill="#2C4369"/>
<path d="M743 172C747.172 172.51 749.08 173.595 751.988 176.598C752.694 177.316 753.4 178.035 754.127 178.775C754.848 179.53 755.569 180.285 756.312 181.062C757.053 181.821 757.794 182.58 758.557 183.361C760.38 185.232 762.194 187.112 764 189C761 189 761 189 759.098 187.215C757.741 185.696 756.387 184.176 755.035 182.652C754.364 182.107 753.692 181.562 753 181C751.68 181.33 750.36 181.66 749 182C755.27 188.27 761.54 194.54 768 201C763.064 201 760.743 197.171 757.369 193.828C756.888 193.343 756.407 192.857 755.911 192.357C754.452 190.889 752.974 189.44 751.494 187.992C750.567 187.064 749.639 186.136 748.684 185.18C747.833 184.331 746.983 183.483 746.107 182.609C743.82 179.777 742.814 177.534 742 174C742.33 173.34 742.66 172.68 743 172Z" fill="#102049"/>
<path d="M51 386C52.32 386.99 53.64 387.98 55 389C53.2615 400.049 51.1202 411.02 49 422C45.2478 416.372 45.8133 411.151 46.9961 404.75C47.4638 402.497 47.9446 400.247 48.4375 398C48.6805 396.844 48.9235 395.687 49.1739 394.496C49.7712 391.661 50.3802 388.83 51 386Z" fill="#2E3E62"/>
<path d="M632 829C632.66 829 633.32 829 634 829C635.033 831.433 636.051 833.871 637.062 836.312C637.357 837.003 637.652 837.693 637.955 838.404C640.113 843.66 640.113 843.66 639 847C638.34 847 637.68 847 637 847C636.484 846.299 635.969 845.598 635.438 844.875C633.211 842.729 633.211 842.729 630.738 843.18C628.457 843.702 626.231 844.295 624 845C624 844.01 624 843.02 624 842C623.34 841.67 622.68 841.34 622 841C622.566 840.792 623.132 840.585 623.715 840.371C626.014 839.405 627.986 838.476 630 837C631.062 833.411 631.062 833.411 631 830C631.33 829.67 631.66 829.34 632 829Z" fill="#384D71"/>
<path d="M132 651C132.99 651 133.98 651 135 651C136.859 653.266 136.859 653.266 138.75 656.25C139.384 657.225 140.018 658.199 140.672 659.203C142 662 142 662 141.703 664.359C141.471 664.901 141.239 665.442 141 666C140.34 665.67 139.68 665.34 139 665C139 664.34 139 663.68 139 663C133.561 662.782 129.129 662.896 124 665C126.023 662.066 127.995 659.938 131 658C131.66 658 132.32 658 133 658C132.67 655.69 132.34 653.38 132 651Z" fill="#32466C"/>
<path d="M246.312 779.438C247.915 779.59 247.915 779.59 249.551 779.746C250.763 779.872 250.763 779.872 252 780C252 781.32 252 782.64 252 784C252.66 784 253.32 784 254 784C253.67 784.66 253.34 785.32 253 786C252.01 785.794 251.02 785.588 250 785.375C245.622 784.721 242.207 785.745 238 787C237.876 786.361 237.752 785.721 237.625 785.063C237.316 784.042 237.316 784.042 237 783C236.34 782.67 235.68 782.34 235 782C235 781.34 235 780.68 235 780C238.946 779.012 242.274 779.038 246.312 779.438Z" fill="#38496E"/>
<path d="M357.271 837.889C357.841 838.256 358.412 838.622 359 839C357.667 840 356.333 841 355 842C354.412 842.474 353.824 842.949 353.219 843.438C350.673 845.23 348.098 846.433 345.25 847.688C343.773 848.343 343.773 848.343 342.266 849.012C341.518 849.338 340.77 849.664 340 850C339.01 848.68 338.02 847.36 337 846C339.903 844.432 342.824 842.901 345.75 841.375C346.575 840.929 347.4 840.483 348.25 840.023C349.049 839.611 349.848 839.198 350.672 838.773C351.405 838.386 352.138 837.998 352.894 837.599C355 837 355 837 357.271 837.889Z" fill="#273C63"/>
<path d="M163 187C163.66 187.66 164.32 188.32 165 189C165.66 188.34 166.32 187.68 167 187C167.99 187.33 168.98 187.66 170 188C165.05 192.95 160.1 197.9 155 203C153 199 153 199 153.25 197.062C154.115 194.685 155.027 192.335 156 190C156.33 190.99 156.66 191.98 157 193C158.32 193 159.64 193 161 193C161 192.34 161 191.68 161 191C161.66 191 162.32 191 163 191C163 189.68 163 188.36 163 187Z" fill="#2C4164"/>
<path d="M508 889C508.99 889.33 509.98 889.66 511 890C511.33 891.98 511.66 893.96 512 896C514.97 896.495 514.97 896.495 518 897C518 897.99 518 898.98 518 900C512.72 900.66 507.44 901.32 502 902C501.67 901.01 501.34 900.02 501 899C501.619 898.711 502.238 898.423 502.875 898.125C505.133 897.063 505.133 897.063 507 895C507.398 893.012 507.738 891.011 508 889Z" fill="#223960"/>
<path d="M631 812C632.605 814.723 632.605 814.723 634.188 818.062C634.717 819.167 635.247 820.272 635.793 821.41C636.191 822.265 636.59 823.119 637 824C633 824 633 824 630.25 821.562C628 819 628 819 628 818C625.36 818 622.72 818 620 818C621.094 814.829 622.013 813.992 624.938 812.187C628 811 628 811 631 812Z" fill="#2B446A"/>
<path d="M863 366C863.33 366.99 863.66 367.98 864 369C864.99 369.33 865.98 369.66 867 370C868.668 375.091 869.423 379.61 869 385C868.34 385.99 867.68 386.98 867 388C866.132 385.275 865.28 382.546 864.437 379.812C864.191 379.044 863.944 378.275 863.689 377.482C862.419 373.313 861.564 370.291 863 366Z" fill="#202F54"/>
<path d="M419 897C421.917 897.114 424.833 897.241 427.75 897.375C428.987 897.421 428.987 897.421 430.25 897.469C431.049 897.507 431.848 897.546 432.672 897.586C433.405 897.617 434.138 897.649 434.894 897.681C437.249 898.038 438.935 898.837 441 900C440.67 900.66 440.34 901.32 440 902C433.4 901.67 426.8 901.34 420 901C419.67 899.68 419.34 898.36 419 897Z" fill="#455B7C"/>
<path d="M846 636C849.791 637.45 853.387 639.152 857 641C856.67 643.64 856.34 646.28 856 649C855.01 649.33 854.02 649.66 853 650C851 647 851 647 850.125 645.125C848.72 642.472 846.917 640.301 845 638C845.33 637.34 845.66 636.68 846 636Z" fill="#34456B"/>
<path d="M697 779C697.66 779 698.32 779 699 779C700.438 780.715 700.438 780.715 702 782.938C704.048 785.986 704.048 785.986 707 788C707.924 789.646 708.845 791.293 709.756 792.946C712.046 796.727 714.927 800.046 717.75 803.438C718.653 804.535 718.653 804.535 719.574 805.654C721.045 807.44 722.52 809.222 724 811C723.67 811.66 723.34 812.32 723 813C716.279 805.174 709.744 797.236 703.41 789.094C701.865 787.111 700.292 785.15 698.684 783.219C697 781 697 781 697 779Z" fill="#2A385F"/>
<path d="M713 759C716.118 760.363 718.047 761.851 720.25 764.438C720.771 765.034 721.292 765.631 721.828 766.246C723 768 723 768 723 771C720.038 770.387 718.619 769.746 716 768C714.01 767.61 712.01 767.268 710 767C710.99 766.01 711.98 765.02 713 764C712.34 763.34 711.68 762.68 711 762C711.66 761.01 712.32 760.02 713 759Z" fill="#23375F"/>
<path d="M624 816C623.67 816.33 623.34 816.66 623 817C625.31 817.33 627.62 817.66 630 818C630 818.33 630 818.66 630 819C629.264 819.121 628.528 819.242 627.77 819.367C626.794 819.535 625.818 819.702 624.812 819.875C623.85 820.037 622.887 820.2 621.895 820.367C618.981 820.92 618.981 820.92 616.281 822.094C613.68 823.127 612.579 822.955 610 822C611 819 611 819 612.926 817.797C613.713 817.451 614.501 817.106 615.312 816.75C616.092 816.394 616.872 816.038 617.676 815.672C620.246 814.929 621.514 815.112 624 816Z" fill="#192D57"/>
<path d="M154 193C154 193.99 154 194.98 154 196C154.103 197.258 154.206 198.516 154.312 199.812C154.331 203.164 153.737 204.892 151.625 207.5C149 210 149 210 147 210C146.312 208.25 146.312 208.25 146 206C146.965 204.641 147.969 203.309 149 202C149.217 200.763 149.217 200.763 149.438 199.5C150.151 196.33 151.591 195.098 154 193Z" fill="#182B51"/>
<path d="M142 213C142.812 214.625 142.812 214.625 143 217C141.532 219.246 139.841 221.024 138 223C137.34 221.68 136.68 220.36 136 219C135.67 219.66 135.34 220.32 135 221C133.35 221 131.7 221 130 221C130.761 219.848 131.534 218.703 132.312 217.562C132.742 216.924 133.171 216.286 133.613 215.629C136.069 212.744 138.317 213 142 213Z" fill="#23365A"/>
<path d="M178 169C178.66 169.33 179.32 169.66 180 170C179.01 171.98 178.02 173.96 177 176C178.98 175.34 180.96 174.68 183 174C181.35 175.98 179.7 177.96 178 180C176.68 179.67 175.36 179.34 174 179C174 179.99 174 180.98 174 182C173.34 182 172.68 182 172 182C171.268 179.366 170.822 177.587 171.625 174.938C173.401 172.435 175.541 170.812 178 169Z" fill="#162B53"/>
<path d="M98 269C98.66 269.99 99.32 270.98 100 272C100.33 271.34 100.66 270.68 101 270C101.66 270 102.32 270 103 270C102.469 274.515 100.634 277.347 98 281C97.01 280.01 96.02 279.02 95 278C94.34 278.66 93.68 279.32 93 280C93.5312 275.485 95.3662 272.653 98 269Z" fill="#14254B"/>
<path d="M851 645C852.32 645.66 853.64 646.32 855 647C854.635 652.664 853.945 657.007 851 662C850.01 661.67 849.02 661.34 848 661C848.133 660.432 848.266 659.863 848.402 659.277C849.488 654.528 850.383 649.832 851 645Z" fill="#2E4269"/>
<path d="M172 174C172 176.667 172 179.333 172 182C172.66 182 173.32 182 174 182C174 181.01 174 180.02 174 179C174.99 179 175.98 179 177 179C175.607 182.367 174.021 183.986 171 186C170.01 185.01 169.02 184.02 168 183C168.33 182.34 168.66 181.68 169 181C167.68 181.99 166.36 182.98 165 184C164.34 183.67 163.68 183.34 163 183C165.97 180.03 168.94 177.06 172 174Z" fill="#2C3F62"/>
<path d="M544 855C544.33 855 544.66 855 545 855C545.695 861.512 546.319 867.551 545 874C544.01 874.33 543.02 874.66 542 875C540.95 867.411 540.646 861.977 544 855Z" fill="#364E73"/>
<path d="M841 302C843.144 304.61 844.708 306.592 845 310C844.411 312.354 843.754 314.693 843 317C840.715 314.715 840.029 312.875 838.875 309.875C838.522 308.965 838.169 308.055 837.805 307.117C837.539 306.419 837.274 305.72 837 305C837.66 305 838.32 305 839 305C839 304.34 839 303.68 839 303C839.66 302.67 840.32 302.34 841 302Z" fill="#24365A"/>
<path d="M340 848C340.33 850.97 340.66 853.94 341 857C339.02 855.35 337.04 853.7 335 852C332.833 852.833 332.833 852.833 332 855C331.01 854.67 330.02 854.34 329 854C329.33 852.02 329.66 850.04 330 848C330.66 848.33 331.32 848.66 332 849C332.619 848.67 333.238 848.34 333.875 848C336 847 336 847 340 848Z" fill="#203962"/>
<path d="M129 662C128.67 662.33 128.34 662.66 128 663C129.32 662.67 130.64 662.34 132 662C129.877 664.301 127.845 665.819 125.062 667.25C124.393 667.606 123.724 667.962 123.035 668.328C120.584 669.137 119.428 668.737 117 668C114.319 668.386 114.319 668.386 112 669C114.882 666.727 117.797 664.925 121.062 663.25C121.92 662.801 122.777 662.353 123.66 661.891C126 661 126 661 129 662Z" fill="#1B2D56"/>
<path d="M847 659C847.99 659 848.98 659 850 659C850.684 660.734 850.684 660.734 851 663C849.785 665.141 849.785 665.141 848.062 667.25C847.497 667.956 846.931 668.663 846.348 669.391C845.681 670.187 845.681 670.187 845 671C844.01 670.67 843.02 670.34 842 670C842 666 842 666 843.375 664.5C843.911 664.005 844.447 663.51 845 663C846.176 660.9 846.176 660.9 847 659Z" fill="#324A70"/>
<path d="M42 440C42.33 440 42.66 440 43 440C43 441.98 43 443.96 43 446C43.66 446 44.32 446 45 446C44.67 452.27 44.34 458.54 44 465C43.67 465 43.34 465 43 465C42.67 463.02 42.34 461.04 42 459C41.67 459 41.34 459 41 459C41.33 452.73 41.66 446.46 42 440Z" fill="#3E4C6D"/>
<path d="M111 626C111.99 626.33 112.98 626.66 114 627C114.33 627.99 114.66 628.98 115 630C113.562 632.688 113.562 632.688 112 635C110.35 634.67 108.7 634.34 107 634C107.312 631.125 107.312 631.125 108 628C108.99 627.34 109.98 626.68 111 626Z" fill="#213C63"/>
<path d="M51 386C52.32 386.99 53.64 387.98 55 389C54.34 392.96 53.68 396.92 53 401C51.68 400.01 50.36 399.02 49 398C49.66 394.04 50.32 390.08 51 386Z" fill="#2F4063"/>
<path d="M780 208C784.322 211.34 787.175 214.328 790 219C788 222 788 222 785.875 222.688C785.256 222.791 784.637 222.894 784 223C780 218.25 780 218.25 780 216C780.66 216 781.32 216 782 216C782.33 216.66 782.66 217.32 783 218C783.99 218.33 784.98 218.66 786 219C785.381 217.928 784.762 216.855 784.125 215.75C782.668 213.202 781.271 210.647 780 208Z" fill="#1F2F53"/>
<path d="M78 650C80.64 650.33 83.28 650.66 86 651C84.7642 655.943 83.2477 658.168 79 661C78.67 661 78.34 661 78 661C78 657.37 78 653.74 78 650Z" fill="#2B456B"/>
<path d="M495 846C495.33 846.66 495.66 847.32 496 848C498.322 848.407 500.657 848.744 503 849C504.665 855.366 505.427 859.799 503 866C502.67 866 502.34 866 502 866C501.34 860.39 500.68 854.78 500 849C498.35 849 496.7 849 495 849C495 848.01 495 847.02 495 846Z" fill="#354B70"/>
<path d="M803 738C803.66 738 804.32 738 805 738C804.407 741.392 803.233 743.211 800.938 745.75C800.39 746.364 799.842 746.977 799.277 747.609C798.856 748.068 798.434 748.527 798 749C795.64 746.64 795.509 745.221 795 742C795.763 741.897 796.526 741.794 797.312 741.688C800.219 740.944 801.036 740.151 803 738Z" fill="#253B62"/>
<path d="M351 878C356.802 883.645 356.802 883.645 359 887C359 887.66 359 888.32 359 889C356.03 888.505 356.03 888.505 353 888C352.67 886.68 352.34 885.36 352 884C351.34 884 350.68 884 350 884C350 883.34 350 882.68 350 882C350.66 882 351.32 882 352 882C351.67 880.68 351.34 879.36 351 878Z" fill="#253A63"/>
<path d="M327 819C328.938 819.758 328.938 819.758 331 821C334.004 827.978 330.589 835.433 328 842C327.67 842 327.34 842 327 842C327.631 836.219 328.652 830.656 330 825C328.35 823.68 326.7 822.36 325 821C325.66 820.34 326.32 819.68 327 819Z" fill="#22345E"/>
<path d="M157 730C159.333 731.166 160.206 732.399 161.812 734.438C164.278 737.393 166.185 738.99 170 740C169.01 740.33 168.02 740.66 167 741C166.67 741.66 166.34 742.32 166 743C165.381 742.361 164.762 741.721 164.125 741.062C162.174 738.961 162.174 738.961 160 738C159.67 739.32 159.34 740.64 159 742C157.862 737.734 157 734.435 157 730Z" fill="#374B70"/>
<path d="M64 344C64.33 344.99 64.66 345.98 65 347C65.66 347 66.32 347 67 347C66.67 349.31 66.34 351.62 66 354C64.35 354.66 62.7 355.32 61 356C61.8571 347.429 61.8571 347.429 64 344Z" fill="#1A2A51"/>
<path d="M877 423C877.33 423 877.66 423 878 423C878.33 427.62 878.66 432.24 879 437C878.34 437 877.68 437 877 437C877 438.98 877 440.96 877 443C876.67 443 876.34 443 876 443C875.776 440.793 875.572 438.584 875.375 436.375C875.259 435.145 875.143 433.915 875.023 432.648C875 428.947 875.626 426.41 877 423Z" fill="#3E4D70"/>
<path d="M79 304C79.4538 304.639 79.9075 305.279 80.375 305.938C81.8392 308.097 81.8392 308.097 84 309C83.34 310.65 82.68 312.3 82 314C81 314 80 314 79 314C78.67 314.66 78.34 315.32 78 316C77.01 315.67 76.02 315.34 75 315C76.2126 311.276 77.5086 307.622 79 304Z" fill="#2C3B5E"/>
<path d="M180 721C185.5 722.467 185.5 722.467 187.875 725C189 727 189 727 189 729C187 729 187 729 185.375 727.5C184.921 727.005 184.468 726.51 184 726C184.206 726.928 184.412 727.856 184.625 728.812C185 732 185 732 183 735C182.867 734.325 182.734 733.649 182.598 732.953C182.421 732.061 182.244 731.169 182.062 730.25C181.888 729.368 181.714 728.487 181.535 727.578C181.076 725.368 180.567 723.185 180 721Z" fill="#1A2F5B"/>
<path d="M774 201C775.98 202.65 777.96 204.3 780 206C779.01 206 778.02 206 777 206C776.217 207.792 776.217 207.792 776 210C777.352 212.248 777.352 212.248 779 214C778.01 214.495 778.01 214.495 777 215C773.352 211.117 772.415 208.288 772 203C772.66 203 773.32 203 774 203C774 202.34 774 201.68 774 201Z" fill="#1B2D52"/>
<path d="M728 810C730.31 810.66 732.62 811.32 735 812C730.25 816.875 730.25 816.875 728 818C727.34 817.67 726.68 817.34 726 817C726.875 812.25 726.875 812.25 728 810Z" fill="#2E476C"/>
<path d="M235 780C237.97 780.33 240.94 780.66 244 781C244 781.66 244 782.32 244 783C244.66 783.66 245.32 784.32 246 785C243.36 785.66 240.72 786.32 238 787C237.67 785.68 237.34 784.36 237 783C236.34 782.67 235.68 782.34 235 782C235 781.34 235 780.68 235 780Z" fill="#3A5376"/>
<path d="M152 767C152.66 767 153.32 767 154 767C155.625 769 155.625 769 157 771C157.99 769.68 158.98 768.36 160 767C162 774.625 162 774.625 162 778C158.851 776.631 156.952 775.125 154.75 772.5C154.229 771.892 153.708 771.283 153.172 770.656C152 769 152 769 152 767Z" fill="#22345E"/>
<path d="M547 881C549.27 884.404 549.365 886.165 549.625 890.188C549.7 891.274 549.775 892.361 549.852 893.48C549.901 894.312 549.95 895.143 550 896C548.68 896 547.36 896 546 896C544.25 894 544.25 894 543 892C543.33 891.34 543.66 890.68 544 890C544.99 890.99 545.98 891.98 547 893C547 889.04 547 885.08 547 881Z" fill="#2B3B63"/>
<path d="M631 835C631.981 838.053 631.981 839.947 631 843C628.69 843.66 626.38 844.32 624 845C624 844.01 624 843.02 624 842C623.34 841.67 622.68 841.34 622 841C622.566 840.734 623.132 840.469 623.715 840.195C624.448 839.842 625.182 839.489 625.938 839.125C626.668 838.777 627.399 838.429 628.152 838.07C630.163 837.132 630.163 837.132 631 835Z" fill="#3D5174"/>
<path d="M508 881C510 883 510 883 510.195 885.164C510.172 885.976 510.149 886.788 510.125 887.625C510.107 888.442 510.089 889.26 510.07 890.102C510.035 891.041 510.035 891.041 510 892C509.67 892 509.34 892 509 892C508.67 893.65 508.34 895.3 508 897C507.67 897 507.34 897 507 897C505.827 892.454 505.459 887.67 506 883C506.66 882.34 507.32 881.68 508 881Z" fill="#1B2D58"/>
<path d="M539.688 840.938C540.9 840.951 540.9 840.951 542.137 840.965C543.059 840.982 543.059 840.982 544 841C543.01 841.495 543.01 841.495 542 842C542 843.98 542 845.96 542 848C541.01 848.495 541.01 848.495 540 849C539.67 847.68 539.34 846.36 539 845C536.69 844.67 534.38 844.34 532 844C532 843.34 532 842.68 532 842C534.882 841.039 536.699 840.894 539.688 840.938Z" fill="#233B63"/>
<path d="M715 149C716.65 149 718.3 149 720 149C720.33 149.66 720.66 150.32 721 151C720.34 151 719.68 151 719 151C719.507 154.719 720.116 157.735 722 161C715.753 154.922 715.753 154.922 714 152C714.33 151.01 714.66 150.02 715 149Z" fill="#182F56"/>
<path d="M800 639C801.32 639 802.64 639 804 639C803.67 642.3 803.34 645.6 803 649C802.34 648.01 801.68 647.02 801 646C800.67 648.31 800.34 650.62 800 653C799.67 653 799.34 653 799 653C798.973 651.417 798.954 649.833 798.938 648.25C798.926 647.368 798.914 646.487 798.902 645.578C798.992 643.218 799.331 641.255 800 639Z" fill="#23345D"/>
<path d="M854 335C854.66 335 855.32 335 856 335C856.849 340.376 857.002 344.654 856 350C853.253 345.88 853 342.923 853 338C853.33 337.01 853.66 336.02 854 335Z" fill="#2E4265"/>
<path d="M95 277C97 278 97 278 97.8125 279.75C98.0753 282.904 96.7634 284.461 95 287C94.8969 286.361 94.7938 285.721 94.6875 285.062C94.4606 284.382 94.2338 283.701 94 283C93.01 282.67 92.02 282.34 91 282C92.75 278.125 92.75 278.125 95 277Z" fill="#2B4064"/>
<path d="M118 242C118.66 242 119.32 242 120 242C120.682 247.031 118.365 249.954 115.5 253.812C115.071 254.41 114.641 255.007 114.199 255.623C113.143 257.09 112.073 258.546 111 260C110.67 259.01 110.34 258.02 110 257C111.398 254.695 111.398 254.695 113.375 252.125C115.991 248.717 117.461 246.294 118 242Z" fill="#303C5F"/>
<path d="M419 898C421.271 898.114 423.542 898.242 425.812 898.375C427.077 898.445 428.342 898.514 429.645 898.586C433 899 433 899 436 901C430.72 901 425.44 901 420 901C419.67 900.01 419.34 899.02 419 898Z" fill="#324267"/>
<path d="M46 415C47.7226 417.994 48.2731 420.177 48.25 423.625C48.2552 424.401 48.2603 425.177 48.2656 425.977C48 428 48 428 46 430C45.0122 427.037 44.8659 425.029 44.875 421.938C44.8724 421.06 44.8698 420.182 44.8672 419.277C45 417 45 417 46 415Z" fill="#1A284E"/>
<path d="M320 85C320 85.66 320 86.32 320 87C318.732 87.5062 317.46 88.0047 316.188 88.5C315.126 88.9177 315.126 88.9177 314.043 89.3438C312 90 312 90 309 90C309 90.66 309 91.32 309 92C306 93 306 93 303.812 92.0625C303.214 91.7119 302.616 91.3613 302 91C304.624 89.996 307.249 88.9967 309.875 88C310.621 87.7138 311.368 87.4277 312.137 87.1328C317.773 85 317.773 85 320 85Z" fill="#323F60"/>
<path d="M755 713C755.99 713.33 756.98 713.66 758 714C758 715.32 758 716.64 758 718C757.01 718 756.02 718 755 718C754.34 719.32 753.68 720.64 753 722C752.01 722 751.02 722 750 722C751.498 718.888 753.199 715.947 755 713Z" fill="#283C63"/>
<path d="M176 713C177.129 713.933 178.253 714.871 179.375 715.812C180.001 716.335 180.628 716.857 181.273 717.395C183 719 183 719 185 722C181 722 181 722 178 721C177.27 719.152 177.27 719.152 176.812 716.938C176.654 716.204 176.495 715.471 176.332 714.715C176.222 714.149 176.113 713.583 176 713Z" fill="#31466B"/>
<path d="M169 704C171.648 706.578 173.944 708.916 176 712C173.333 712 170.667 712 168 712C167.958 709.667 167.959 707.333 168 705C168.33 704.67 168.66 704.34 169 704Z" fill="#324469"/>
<path d="M859 359C859.99 359 860.98 359 862 359C862.289 359.598 862.577 360.196 862.875 360.812C864.047 363.193 864.047 363.193 866 366C866 366.99 866 367.98 866 369C865.34 369 864.68 369 864 369C863.67 368.34 863.34 367.68 863 367C862.01 367.495 862.01 367.495 861 368C860.34 365.03 859.68 362.06 859 359Z" fill="#324367"/>
<path d="M357 833C359.038 834.274 361.039 835.611 363 837C363 837.66 363 838.32 363 839C360.188 840.562 360.188 840.562 357 842C356.01 841.67 355.02 841.34 354 841C354.99 840.01 355.98 839.02 357 838C356.67 837.34 356.34 836.68 356 836C356.33 835.01 356.66 834.02 357 833Z" fill="#253C64"/>
<path d="M250 781C255.75 781.875 255.75 781.875 258 783C258.407 785.322 258.744 787.657 259 790C257.293 788.719 255.626 787.382 254 786C254 785.34 254 784.68 254 784C253.34 784 252.68 784 252 784C252 783.34 252 782.68 252 782C251.34 781.67 250.68 781.34 250 781Z" fill="#22375F"/>
<path d="M424 844C427.96 844.33 431.92 844.66 436 845C435.67 845.99 435.34 846.98 435 848C433.742 848.021 432.484 848.041 431.188 848.062C430.48 848.074 429.772 848.086 429.043 848.098C427 848 427 848 424 847C424 846.01 424 845.02 424 844Z" fill="#415678"/>
<path d="M128 740C131.375 740.547 133.082 741.055 136 743C135.34 743.66 134.68 744.32 134 745C134.99 746.32 135.98 747.64 137 749C136.01 749.495 136.01 749.495 135 750C133.827 748.714 132.662 747.421 131.5 746.125C130.525 745.046 130.525 745.046 129.531 743.945C128 742 128 742 128 740Z" fill="#253960"/>
<path d="M114 624C114.99 624.66 115.98 625.32 117 626C116.67 626.99 116.34 627.98 116 629C117.32 629.66 118.64 630.32 120 631C116.535 632.485 116.535 632.485 113 634C113.309 632.824 113.309 632.824 113.625 631.625C113.749 630.759 113.873 629.892 114 629C113.34 628.34 112.68 627.68 112 627C112 626.34 112 625.68 112 625C112.66 624.67 113.32 624.34 114 624Z" fill="#3D5276"/>
<path d="M825 280C828.438 280.812 828.438 280.812 832 282C832.33 282.99 832.66 283.98 833 285C830.525 286.485 830.525 286.485 828 288C825 283.375 825 283.375 825 280Z" fill="#2B3D5F"/>
<path d="M258 784C262 786 262 786 264 789C262.68 790.65 261.36 792.3 260 794C259.34 790.7 258.68 787.4 258 784Z" fill="#3D5074"/>
<path d="M845 318C846.32 318 847.64 318 849 318C849.934 321.01 850.044 321.867 849 325C848.01 325.33 847.02 325.66 846 326C845.269 324.023 844.606 322.019 844 320C844.33 319.34 844.66 318.68 845 318Z" fill="#253A5F"/>
<path d="M174 740C174.99 740 175.98 740 177 740C177.124 740.619 177.248 741.238 177.375 741.875C177.872 744.191 177.872 744.191 180 746C179 747 179 747 175.438 747.062C174.303 747.042 173.169 747.021 172 747C171.67 746.34 171.34 745.68 171 745C171.495 744.546 171.99 744.093 172.5 743.625C174.226 742.124 174.226 742.124 174 740Z" fill="#405374"/>
<path d="M56 370C58.0935 373.402 58.1794 376.053 58 380C56.68 380 55.36 380 54 380C54.1405 378.52 54.2875 377.041 54.4375 375.562C54.5187 374.739 54.5999 373.915 54.6836 373.066C55 371 55 371 56 370Z" fill="#1F2D51"/>
<path d="M163 187C163.66 187.66 164.32 188.32 165 189C165.66 188.34 166.32 187.68 167 187C167.99 187.33 168.98 187.66 170 188C167.69 190.31 165.38 192.62 163 195C162.34 194.67 161.68 194.34 161 194C161 193.01 161 192.02 161 191C161.66 191 162.32 191 163 191C163 189.68 163 188.36 163 187Z" fill="#435170"/>
<path d="M506 895C510 899.875 510 899.875 510 901C507.36 901.33 504.72 901.66 502 902C501.67 901.01 501.34 900.02 501 899C501.639 898.711 502.279 898.423 502.938 898.125C505.152 897.172 505.152 897.172 506 895Z" fill="#435579"/>
<path d="M347 846C344.614 847.892 342.928 849.024 340 850C339.01 848.68 338.02 847.36 337 846C340.77 843.39 342.924 844.332 347 846Z" fill="#405377"/>
<path d="M432 846C436.62 846 441.24 846 446 846C446 846.99 446 847.98 446 849C443.69 849 441.38 849 439 849C439 848.34 439 847.68 439 847C436.69 847 434.38 847 432 847C432 846.67 432 846.34 432 846Z" fill="#122754"/>
<path d="M216 816C216.33 816.66 216.66 817.32 217 818C217.99 818 218.98 818 220 818C220 818.66 220 819.32 220 820C220.66 820 221.32 820 222 820C222.33 820.99 222.66 821.98 223 823C221.35 823.33 219.7 823.66 218 824C216.235 820.912 216 819.767 216 816Z" fill="#213A62"/>
<path d="M141 745C141.66 745.33 142.32 745.66 143 746C142.629 746.536 142.257 747.072 141.875 747.625C140.651 750.946 141.695 752.811 143 756C142.01 756 141.02 756 140 756C138.812 753.875 138.812 753.875 138 751C139.375 747.688 139.375 747.688 141 745Z" fill="#293963"/>
<path d="M85 292C85.33 292.66 85.66 293.32 86 294C87.65 294 89.3 294 91 294C90.01 295.485 90.01 295.485 89 297C87.68 296.67 86.36 296.34 85 296C84.34 297.98 83.68 299.96 83 302C82.34 302 81.68 302 81 302C82.1094 298.513 83.2634 295.225 85 292Z" fill="#26365A"/>
<path d="M200 150C202 152 202 152 203 155C203.66 155.66 204.32 156.32 205 157C204.01 157.66 203.02 158.32 202 159C200.68 158.34 199.36 157.68 198 157C198.875 151.125 198.875 151.125 200 150Z" fill="#243B5F"/>
<path d="M340 858C340.99 858 341.98 858 343 858C342.67 859.98 342.34 861.96 342 864C340.35 864.33 338.7 864.66 337 865C337.33 863.35 337.66 861.7 338 860C338.66 860 339.32 860 340 860C340 859.34 340 858.68 340 858Z" fill="#223E66"/>
<path d="M807 632C807.33 632.66 807.66 633.32 808 634C806.75 637.062 806.75 637.062 805 640C804.01 640.33 803.02 640.66 802 641C801.25 639.25 801.25 639.25 801 637C802.851 634.767 804.404 633.298 807 632Z" fill="#2C4067"/>
<path d="M516.812 70.9375C517.788 70.9465 518.764 70.9555 519.77 70.9648C520.506 70.9764 521.242 70.988 522 71C521.01 71.495 521.01 71.495 520 72C520 72.66 520 73.32 520 74C513.07 73.505 513.07 73.505 506 73C506 72.67 506 72.34 506 72C509.674 71.147 513.045 70.8921 516.812 70.9375Z" fill="#334367"/>
<path d="M504 854C506 856 506 856 506.25 859.25C506.009 862.868 505.312 865.639 504 869C503.67 869 503.34 869 503 869C502.893 863.882 503.288 859.071 504 854Z" fill="#142A54"/>
<path d="M686 790C687.414 792.639 688.372 795.071 689 798C688.01 798.33 687.02 798.66 686 799C684.438 796.688 684.438 796.688 683 794C683.33 793.01 683.66 792.02 684 791C684 791.66 684 792.32 684 793C684.66 793 685.32 793 686 793C686 792.01 686 791.02 686 790Z" fill="#3A4A71"/>
<path d="M56 367C57.6667 367 59.3333 367 61 367C60.34 370.3 59.68 373.6 59 377C57.1967 373.393 56.534 370.916 56 367Z" fill="#304266"/>
<path d="M845 308C844.414 314.152 844.414 314.152 844 316C843.01 316.495 843.01 316.495 842 317C841.01 314.36 840.02 311.72 839 309C842 308 842 308 845 308Z" fill="#2C3D61"/>
<path d="M836 293C838.339 295.127 839.807 297.062 841 300C841 300.99 841 301.98 841 303C840.34 303 839.68 303 839 303C839 303.66 839 304.32 839 305C838.34 305 837.68 305 837 305C837.206 304.237 837.412 303.474 837.625 302.688C838.334 299.781 838.334 299.781 836 297C836 295.68 836 294.36 836 293Z" fill="#15234B"/>
<path d="M111 252C112.033 254.788 112.045 255.868 111.062 258.75C110.712 259.493 110.361 260.235 110 261C109.67 260.01 109.34 259.02 109 258C108.01 258 107.02 258 106 258C106.25 256.125 106.25 256.125 107 254C109.062 252.75 109.062 252.75 111 252Z" fill="#142B51"/>
<path d="M628 819C630.31 819 632.62 819 635 819C635.66 820.65 636.32 822.3 637 824C633 824 633 824 630.25 821.5C629.507 820.675 628.765 819.85 628 819Z" fill="#4F5E7F"/>
<path d="M710 761C712 762 712 762 714 765C712.35 766.32 710.7 767.64 709 769C708.01 768.34 707.02 767.68 706 767C706.474 766.381 706.949 765.762 707.438 765.125C709.024 763.093 709.024 763.093 710 761Z" fill="#354E72"/>
<path d="M188 729C188.66 729.33 189.32 729.66 190 730C189.913 731.439 189.804 732.876 189.688 734.312C189.629 735.113 189.571 735.914 189.512 736.738C188.918 739.363 188.042 740.308 186 742C186 740.35 186 738.7 186 737C186.66 737 187.32 737 188 737C188 734.36 188 731.72 188 729Z" fill="#404F72"/>
<path d="M120 668C120 668.66 120 669.32 120 670C116.535 671.485 116.535 671.485 113 673C112.01 671.68 111.02 670.36 110 669C116.625 666.875 116.625 666.875 120 668Z" fill="#395073"/>
<path d="M69 330C71.3595 332.36 71.4914 333.779 72 337C70.35 337.66 68.7 338.32 67 339C67.875 331.125 67.875 331.125 69 330Z" fill="#172B50"/>
<path d="M100 264C101.65 265.65 103.3 267.3 105 269C104.01 270.485 104.01 270.485 103 272C100 272 100 272 98 271C98.875 266.25 98.875 266.25 100 264Z" fill="#304467"/>
<path d="M809 245C811.679 249.019 811.156 251.242 811 256C810.01 256.495 810.01 256.495 809 257C807 254 807 254 807.242 251.738C807.555 250.538 807.555 250.538 807.875 249.312C808.079 248.504 808.282 247.696 808.492 246.863C808.66 246.248 808.827 245.634 809 245Z" fill="#2C3E61"/>
<path d="M511 846C513.25 848.625 513.25 848.625 515 851C514.01 851 513.02 851 512 851C511.381 850.041 511.381 850.041 510.75 849.062C509.036 846.612 509.036 846.612 505.312 846.25C504.219 846.167 503.126 846.085 502 846C502 845.67 502 845.34 502 845C505.772 843.952 507.752 843.695 511 846Z" fill="#536181"/>
<path d="M725 814C725.33 814.99 725.66 815.98 726 817C726.66 817 727.32 817 728 817C728 817.66 728 818.32 728 819C726.039 820.389 724.038 821.726 722 823C722 818.723 722.706 817.441 725 814Z" fill="#2B3961"/>
<path d="M167 741C169.97 741 172.94 741 176 741C175.67 741.99 175.34 742.98 175 744C173.188 744.812 173.188 744.812 171 745C168.75 744.062 168.75 744.062 167 743C167 742.34 167 741.68 167 741Z" fill="#1A345E"/>
<path d="M78 650C80.64 650.33 83.28 650.66 86 651C85.34 652.98 84.68 654.96 84 657C82 656 82 656 81 654C80.01 653.67 79.02 653.34 78 653C78 652.01 78 651.02 78 650Z" fill="#3A5176"/>
<path d="M800 645C801.98 645.495 801.98 645.495 804 646C803.497 650.401 801.912 652.712 799 656C799.33 652.37 799.66 648.74 800 645Z" fill="#3A5376"/>
<path d="M851 645C852.98 645.99 852.98 645.99 855 647C855 648.98 855 650.96 855 653C853.68 653.33 852.36 653.66 851 654C851 651.03 851 648.06 851 645Z" fill="#102452"/>
<path d="M817 624C819.169 624.506 821 625 823 626C822.67 626.99 822.34 627.98 822 629C819.03 628.505 819.03 628.505 816 628C816.33 626.68 816.66 625.36 817 624Z" fill="#3E4F73"/>
<path d="M879 451C879.66 451 880.32 451 881 451C881.082 452.416 881.139 453.833 881.188 455.25C881.222 456.039 881.257 456.828 881.293 457.641C880.936 460.517 879.882 461.846 878 464C877.973 462.021 877.954 460.042 877.938 458.062C877.926 456.96 877.914 455.858 877.902 454.723C878 452 878 452 879 451Z" fill="#556483"/>
<path d="M127 224C127.33 224.99 127.66 225.98 128 227C128.66 227.33 129.32 227.66 130 228C130.625 230.062 130.625 230.062 131 232C130.01 232 129.02 232 128 232C126.312 229.5 126.312 229.5 125 227C125.66 226.01 126.32 225.02 127 224Z" fill="#2A3E63"/>
<path d="M172 174C172 178.615 172 178.615 171 181C168.109 182.522 166.282 183 163 183C165.97 180.03 168.94 177.06 172 174Z" fill="#46506C"/>
<path d="M660 111C660.66 111.33 661.32 111.66 662 112C661.67 112.66 661.34 113.32 661 114C661.66 114 662.32 114 663 114C662.67 115.65 662.34 117.3 662 119C659.525 118.01 659.525 118.01 657 117C657.33 116.01 657.66 115.02 658 114C658.66 114 659.32 114 660 114C660 113.01 660 112.02 660 111Z" fill="#233E62"/>
<path d="M556 73C556.99 73 557.98 73 559 73C558.125 77.75 558.125 77.75 557 80C555.68 80 554.36 80 553 80C553.75 75.25 553.75 75.25 556 73Z" fill="#11274C"/>
<path d="M221 815C221.66 815 222.32 815 223 815C225 822.625 225 822.625 225 826C224.34 825.67 223.68 825.34 223 825C222.375 822.438 222.375 822.438 222 820C221.34 820 220.68 820 220 820C220.33 818.35 220.66 816.7 221 815Z" fill="#394C70"/>
<path d="M761 705C761.99 705.33 762.98 705.66 764 706C763.01 707.98 762.02 709.96 761 712C760.01 712 759.02 712 758 712C758.613 709.038 759.254 707.619 761 705Z" fill="#273B62"/>
<path d="M169 181C169 181.99 169 182.98 169 184C169.66 184.66 170.32 185.32 171 186C167.947 186.981 166.053 186.981 163 186C163 185.34 163 184.68 163 184C166.462 181 166.462 181 169 181Z" fill="#152B52"/>
<path d="M225 825C226.155 825.736 227.299 826.489 228.438 827.25C229.395 827.876 229.395 827.876 230.371 828.516C232.299 830.272 232.615 831.461 233 834C231.68 834 230.36 834 229 834C228.897 833.402 228.794 832.804 228.688 832.188C227.906 829.701 226.851 828.771 225 827C225 826.34 225 825.68 225 825Z" fill="#1D305B"/>
<path d="M728 807C728.722 807.351 729.444 807.701 730.188 808.062C733.312 809.104 734.882 808.891 738 808C737.34 809.32 736.68 810.64 736 812C732.562 811.188 732.562 811.188 729 810C728.67 809.01 728.34 808.02 728 807Z" fill="#20315C"/>
<path d="M90 672C92.97 672.495 92.97 672.495 96 673C96 673.99 96 674.98 96 676C93.625 676.625 93.625 676.625 91 677C90.34 676.34 89.68 675.68 89 675C89.33 674.01 89.66 673.02 90 672Z" fill="#395074"/>
<path d="M851 641C852.32 641.33 853.64 641.66 855 642C854 645 854 645 853 646C853.99 646 854.98 646 856 646C855.67 646.99 855.34 647.98 855 649C854.01 649.495 854.01 649.495 853 650C852.34 647.03 851.68 644.06 851 641Z" fill="#324F74"/>
<path d="M853 332C853.66 332.33 854.32 332.66 855 333C854.34 334.65 853.68 336.3 853 338C853.66 338.33 854.32 338.66 855 339C854.01 340.485 854.01 340.485 853 342C851.415 339.482 850.963 338.321 851.312 335.312C852 333 852 333 853 332Z" fill="#192951"/>
<path d="M124 228C124.66 228 125.32 228 126 228C127.625 230 127.625 230 129 232C128.67 232.66 128.34 233.32 128 234C126.02 234 124.04 234 122 234C122.506 231.831 123 230 124 228Z" fill="#1B2E54"/>
<path d="M772 199C772.99 199.33 773.98 199.66 775 200C774.67 200.99 774.34 201.98 774 203C773.34 202.67 772.68 202.34 772 202C772 201.01 772 200.02 772 199ZM769 202C769.99 202.33 770.98 202.66 772 203C773.188 205.562 773.188 205.562 774 208C773.01 208 772.02 208 771 208C770.34 206.02 769.68 204.04 769 202Z" fill="#344566"/>
<path d="M640 863C640.33 864.32 640.66 865.64 641 867C639.02 867.99 639.02 867.99 637 869C636.34 868.34 635.68 867.68 635 867C635 866.34 635 865.68 635 865C636.65 864.34 638.3 863.68 640 863Z" fill="#354B71"/>
<path d="M353 840C353.66 840.33 354.32 840.66 355 841C355 841.66 355 842.32 355 843C351.535 844.485 351.535 844.485 348 846C347.67 845.01 347.34 844.02 347 843C348.965 841.932 350.969 840.934 353 840Z" fill="#3B5275"/>
<path d="M542 840C543.98 840 545.96 840 548 840C548 840.99 548 841.98 548 843C547.01 843.33 546.02 843.66 545 844C544.34 844.66 543.68 845.32 543 846C542.67 844.02 542.34 842.04 542 840Z" fill="#3B4E72"/>
<path d="M156 754C158.468 755.152 160.048 756.048 162 758C162 758.99 162 759.98 162 761C160.02 760.34 158.04 759.68 156 759C156 757.35 156 755.7 156 754Z" fill="#1A345D"/>
<path d="M71 338C70.34 340.64 69.68 343.28 69 346C67.4375 344.75 67.4375 344.75 66 343C66.1875 340.875 66.1875 340.875 67 339C69 338 69 338 71 338Z" fill="#2B3F64"/>
<path d="M825 271C825.66 271.99 826.32 272.98 827 274C826.01 274.33 825.02 274.66 824 275C823.67 275.99 823.34 276.98 823 278C822.01 276.68 821.02 275.36 820 274C820.639 273.691 821.279 273.381 821.938 273.062C823.936 272.165 823.936 272.165 825 271Z" fill="#344366"/>
<path d="M138 213C139.32 213 140.64 213 142 213C142.33 214.32 142.66 215.64 143 217C142.01 217 141.02 217 140 217C140 216.34 140 215.68 140 215C139.01 215.33 138.02 215.66 137 216C137.33 215.01 137.66 214.02 138 213ZM135 214C135.66 214.99 136.32 215.98 137 217C136.01 216.67 135.02 216.34 134 216C134.33 215.34 134.66 214.68 135 214Z" fill="#2F4669"/>
<path d="M343 876C345 878 345 878 345.125 881.125C345.084 882.074 345.043 883.022 345 884C343.35 884 341.7 884 340 884C340 883.01 340 882.02 340 881C341.32 881 342.64 881 344 881C343.67 879.35 343.34 877.7 343 876Z" fill="#1D3059"/>
<path d="M543 870C543.33 871.32 543.66 872.64 544 874C544.66 874 545.32 874 546 874C545.67 876.64 545.34 879.28 545 882C542.864 878.796 542.769 877.981 542.875 874.312C542.893 873.504 542.911 872.696 542.93 871.863C542.953 871.248 542.976 870.634 543 870Z" fill="#142C57"/>
<path d="M310 870C312.31 870.33 314.62 870.66 317 871C317 871.66 317 872.32 317 873C313.713 873.8 312.29 874.097 309 873C309.33 872.01 309.66 871.02 310 870Z" fill="#3D4E73"/>
<path d="M648 848C648.99 848 649.98 848 651 848C651.188 850.812 651.188 850.812 651 854C650.01 854.99 649.02 855.98 648 857C648 854.03 648 851.06 648 848Z" fill="#132854"/>
<path d="M632 834C634 837 634 837 634 839C634.66 839.33 635.32 839.66 636 840C635.67 840.66 635.34 841.32 635 842C633.02 842 631.04 842 629 842C629.464 841.134 629.464 841.134 629.938 840.25C630.926 838.157 631.517 836.255 632 834Z" fill="#142E58"/>
<path d="M239 123C239.99 123.33 240.98 123.66 242 124C241.34 124.66 240.68 125.32 240 126C240 126.66 240 127.32 240 128C240.66 128.33 241.32 128.66 242 129C242 129.66 242 130.32 242 131C240.35 130.67 238.7 130.34 237 130C237.66 127.69 238.32 125.38 239 123Z" fill="#11254D"/>
<path d="M573 78C575 79 575 79 575 79L573 78ZM573 80C572.67 81.32 572.34 82.64 572 84C571.01 84 570.02 84 569 84C569 83.34 569 82.68 569 82C568.01 81.67 567.02 81.34 566 81C569.625 78.875 569.625 78.875 573 80Z" fill="#162D56"/>
<path d="M632 829C632.66 829 633.32 829 634 829C634.66 831.31 635.32 833.62 636 836C635.34 836 634.68 836 634 836C634 835.34 634 834.68 634 834C633.34 834 632.68 834 632 834C631.438 832.062 631.438 832.062 631 830C631.33 829.67 631.66 829.34 632 829Z" fill="#455676"/>
<path d="M251 826C251.33 826 251.66 826 252 826C252 827.65 252 829.3 252 831C252.66 831.33 253.32 831.66 254 832C252.35 832.33 250.7 832.66 249 833C249 829.894 249.539 828.647 251 826Z" fill="#1D3761"/>
<path d="M340 825C341.65 825.33 343.3 825.66 345 826C345 826.66 345 827.32 345 828C342.36 828.66 339.72 829.32 337 830C337.33 829.01 337.66 828.02 338 827C338.66 827 339.32 827 340 827C340 826.34 340 825.68 340 825Z" fill="#162954"/>
<path d="M713 759C714.938 759.75 714.938 759.75 717 761C717.688 763 717.688 763 718 765C718.33 765.66 718.66 766.32 719 767C717.125 766.75 717.125 766.75 715 766C713.279 763.418 713 762.151 713 759Z" fill="#344D71"/>
<path d="M860 356C860.99 356 861.98 356 863 356C863.33 358.97 863.66 361.94 864 365C862 362 862 362 862 359C861.01 359 860.02 359 859 359C859.33 358.01 859.66 357.02 860 356Z" fill="#1C294E"/>
<path d="M60 354C61.65 354.33 63.3 354.66 65 355C64.67 356.65 64.34 358.3 64 360C63.34 359.34 62.68 358.68 62 358C61.01 358.33 60.02 358.66 59 359C59.33 357.35 59.66 355.7 60 354Z" fill="#314366"/>
<path d="M88 287C88.66 287.99 89.32 288.98 90 290C89.34 290 88.68 290 88 290C88.66 290.66 89.32 291.32 90 292C90.33 292.66 90.66 293.32 91 294C89.35 294 87.7 294 86 294C86.875 288.125 86.875 288.125 88 287Z" fill="#16264B"/>
<path d="M806 242C807.485 242.99 807.485 242.99 809 244C809.375 247 809.375 247 809 250C807.515 250.99 807.515 250.99 806 252C806 250.35 806 248.7 806 247C806.66 247 807.32 247 808 247C807.34 245.35 806.68 243.7 806 242Z" fill="#16294F"/>
<path d="M153 197C155.475 197.495 155.475 197.495 158 198C156.25 201.875 156.25 201.875 154 203C153.67 201.02 153.34 199.04 153 197Z" fill="#23365A"/>
<path d="M508 889C508.99 889.33 509.98 889.66 511 890C511 891.98 511 893.96 511 896C510.01 896.33 509.02 896.66 508 897C508 894.36 508 891.72 508 889Z" fill="#2F4A70"/>
<path d="M506 866C506.33 866 506.66 866 507 866C507.369 871.415 507.369 871.415 505.5 874.375C505.005 874.911 504.51 875.447 504 876C503.821 872.053 503.906 869.402 506 866Z" fill="#122651"/>
<path d="M331 821C332.32 821.66 333.64 822.32 335 823C334.34 825.31 333.68 827.62 333 830C332.67 830 332.34 830 332 830C331.639 828.689 331.286 827.376 330.938 826.062C330.642 824.966 330.642 824.966 330.34 823.848C330.228 823.238 330.116 822.628 330 822C330.33 821.67 330.66 821.34 331 821Z" fill="#2B486E"/>
<path d="M49 398C50.485 398.99 50.485 398.99 52 400C52.1875 403.125 52.1875 403.125 52 406C51.01 406.495 51.01 406.495 50 407C49.67 404.03 49.34 401.06 49 398Z" fill="#1D2B50"/>
<path d="M98 269C98.66 269.99 99.32 270.98 100 272C100.33 271.34 100.66 270.68 101 270C101.66 270 102.32 270 103 270C102.67 271.32 102.34 272.64 102 274C100.35 273.67 98.7 273.34 97 273C97.33 271.68 97.66 270.36 98 269Z" fill="#102149"/>
<path d="M101 263C101.99 263 102.98 263 104 263C104.33 264.98 104.66 266.96 105 269C104.01 268.67 103.02 268.34 102 268C101.67 266.35 101.34 264.7 101 263Z" fill="#142A50"/>
<path d="M105 256C105.33 256.66 105.66 257.32 106 258C106.99 258 107.98 258 109 258C109.33 259.32 109.66 260.64 110 262C107 262 107 262 105.312 260.5C104.879 260.005 104.446 259.51 104 259C104.33 258.01 104.66 257.02 105 256Z" fill="#263D62"/>
<path d="M565 80C562.083 81.9836 560.876 81.9876 557.25 81.625C556.178 81.4188 555.105 81.2125 554 81C557.77 78.4362 560.674 79.1681 565 80Z" fill="#354668"/>
<path d="M321 874C322.98 874.66 324.96 875.32 327 876C327 876.99 327 877.98 327 879C325.02 878.34 323.04 877.68 321 877C321 876.01 321 875.02 321 874Z" fill="#3B5072"/>
<path d="M337 865C337.66 865 338.32 865 339 865C339.33 866.32 339.66 867.64 340 869C340.66 869 341.32 869 342 869C341.67 870.32 341.34 871.64 341 873C338.846 870.378 337.599 868.356 337 865Z" fill="#3C4F73"/>
<path d="M339 848C339.773 850.982 340.412 853.976 341 857C338.938 855.25 338.938 855.25 337 853C337.19 850.782 337.415 849.585 339 848Z" fill="#1A325C"/>
<path d="M615 817C617.31 817.66 619.62 818.32 622 819C621.01 819.66 620.02 820.32 619 821C615.812 820.125 615.812 820.125 613 819C613.66 818.34 614.32 817.68 615 817Z" fill="#435679"/>
<path d="M222 789C222.66 789 223.32 789 224 789C224.33 789.99 224.66 790.98 225 792C223.625 793.5 223.625 793.5 222 795C221.34 795 220.68 795 220 795C220.506 792.831 221 791 222 789Z" fill="#253B62"/>
<path d="M691 776C693.31 776.66 695.62 777.32 698 778C695.864 780.136 694.935 780.633 692 781C691.34 780.34 690.68 779.68 690 779C690.33 778.01 690.66 777.02 691 776Z" fill="#485A7B"/>
<path d="M157 748C159.567 751.85 158.833 753.586 158 758C156.196 755.241 155.987 754.11 156.375 750.75C156.581 749.842 156.787 748.935 157 748Z" fill="#3B5175"/>
<path d="M86 668C87.65 669.32 89.3 670.64 91 672C90.67 672.99 90.34 673.98 90 675C88.68 674.67 87.36 674.34 86 674C86 672 86 670 86 668Z" fill="#1B2D56"/>
<path d="M85 667C85.66 667.33 86.32 667.66 87 668C87.625 670.062 87.625 670.062 88 672C87.01 672.33 86.02 672.66 85 673C84.34 672.34 83.68 671.68 83 671C83 670.01 83 669.02 83 668C83.66 667.67 84.32 667.34 85 667Z" fill="#3B4E72"/>
<path d="M801 639C801.99 639 802.98 639 804 639C803.67 642.3 803.34 645.6 803 649C802.67 649 802.34 649 802 649C801.67 645.7 801.34 642.4 801 639Z" fill="#1C2B55"/>
<path d="M869 382C871 386 871 386 871 389C870.01 389 869.02 389 868 389C867.67 389.66 867.34 390.32 867 391C867.66 388.03 868.32 385.06 869 382Z" fill="#38496C"/>
<path d="M96 271C96.33 271.66 96.66 272.32 97 273C99.5273 273.656 99.5273 273.656 102 274C101.01 275.485 101.01 275.485 100 277C97.525 276.01 97.525 276.01 95 275C95.33 273.68 95.66 272.36 96 271Z" fill="#304465"/>
<path d="M795 227C795 227.66 795 228.32 795 229C793.35 229.33 791.7 229.66 790 230C789.67 229.01 789.34 228.02 789 227C791.491 225.755 792.411 226.223 795 227Z" fill="#1B3258"/>
<path d="M599 91C604.75 91.75 604.75 91.75 607 94C604.688 94.625 604.688 94.625 602 95C601.01 94.34 600.02 93.68 599 93C599 92.34 599 91.68 599 91Z" fill="#273D62"/>
</svg>
